<svg xmlns="http://www.w3.org/2000/svg" viewBox="0 0 61.42 30">
<defs>
<style>.cls-1{fill:#fff;}</style>
</defs>
<g id="图层_2" data-name="图层 2">
<g id="图层_1-2" data-name="图层 1">
<path class="cls-1" d="M2.79,26.11a7.32,7.32,0,0,0,4.55,1.42,7.84,7.84,0,0,0,4.05-1.16S6.27,27.33,2.79,26.11Z"/>
<path class="cls-1" d="M2.17,27.53S5.32,30.74,9,29.84s7.56-2.95,11.12-3S27.83,30,27.83,30s-2.32-5.75-7.32-5.82-7.09,3.35-11.39,4.25A9.48,9.48,0,0,1,2.17,27.53Z"/>
<path class="cls-1" d="M15.11,29a17.59,17.59,0,0,1,5.42-1,6.58,6.58,0,0,1,4.09,1.41,11.16,11.16,0,0,0-4.44-.82A27.67,27.67,0,0,0,15.11,29Z"/>
<path class="cls-1" d="M14.42,18.07l-.77,5.73a14.57,14.57,0,0,1,2.59-.86l-.66-4.87Z"/>
<path class="cls-1" d="M15,0A15.12,15.12,0,0,0,0,15.24a15.32,15.32,0,0,0,3,9.2A20,20,0,0,0,5,25a12.68,12.68,0,0,0,5.35,0l.51-.13L13.48,8.81h3l2.27,13.93A10.64,10.64,0,0,1,24,24a24.38,24.38,0,0,1,2.16,1.45A15.35,15.35,0,0,0,30,15.24,15.12,15.12,0,0,0,15,0Zm1.49,6v1.8h-3V6h-.38l1.77-1.32V4.33h.25v.36L16.87,6Z"/>
<path class="cls-1" d="M35,18.05V6.86h3.58c.12-.33.26-.84.45-1.54a1.34,1.34,0,0,1,.11-.39l1.54.17c-.26.73-.46,1.32-.61,1.76h6.07V18.05H44.83v-.93H36.39v.93Zm1.38-10v3.37h8.44V8.07Zm0,4.53V16h8.44V12.6Z"/>
<path class="cls-1" d="M50.12,11.44q-1-.88-2-1.71l.77-.94c.77.55,1.49,1.1,2.15,1.66Zm-.55,6.67-1.27-.39c.4-1.36.84-3,1.32-4.85a4.05,4.05,0,0,1,.83.33,2.39,2.39,0,0,1,.38.11Q50.07,16,49.57,18.11ZM50.5,7.8c-.18-.15-.46-.39-.82-.72-.52-.48-.92-.82-1.22-1l.78-.88c.62.44,1.34,1,2.15,1.71Zm1.33,1.82-.11-.11A4.55,4.55,0,0,0,51,8.68a10.57,10.57,0,0,0,2.7-3.8L55,5a8.11,8.11,0,0,1-.61,1.1h6.73V7.19H53.81a7.74,7.74,0,0,1-.88,1.22h7.33c0,.25,0,.8,0,1.65q-.06,1-.06,1.65h1.27v1H60.15c0,.3,0,.72,0,1.27v1.05h1v1H60a1.86,1.86,0,0,1-2.2,1.93h-2c0-.11-.09-.27-.16-.49s-.13-.44-.17-.55h1.93c.88,0,1.34-.26,1.38-.89H51.94l.38-3.36H51.11v-1h1.32l.33-3.14a2.66,2.66,0,0,0-.16.22C52.45,9,52.19,9.25,51.83,9.62Zm7.05,5.46c0-.44.06-1.22.06-2.32H53.48l-.22,2.32Zm-5-5.68-.27,2.31H59V9.4ZM56.68,15c-.19-.15-.44-.37-.77-.67s-.65-.45-.83-.6l.61-.66c.44.29,1,.7,1.65,1.21Zm.11-3.42a7.8,7.8,0,0,0-1-.83c-.22-.18-.4-.33-.55-.44l.66-.66,1.44,1c-.08-.07,0,0,.22.17Z"/>
<path class="cls-1" d="M35.06,20.6H37c1.29,0,2.18.37,2.18,1.34a1.21,1.21,0,0,1-.94,1.19v0c.77.13,1.31.57,1.31,1.32,0,1.08-1,1.61-2.42,1.61h-2Zm1.75,2.34c1.09,0,1.53-.35,1.53-.91s-.51-.88-1.5-.88h-1v1.79Zm.16,2.6c1.09,0,1.74-.33,1.74-1.08s-.63-1-1.74-1H35.86v2.07Z"/>
<path class="cls-1" d="M43.75,24.42H41.43l-.62,1.68H40l2.16-5.5h.89l2.16,5.5h-.85Zm-.2-.56-.3-.84c-.23-.62-.43-1.22-.64-1.86h0c-.19.65-.4,1.24-.63,1.86l-.31.84Z"/>
<path class="cls-1" d="M46.19,20.6H47v5.5h-.81Z"/>
<path class="cls-1" d="M48.82,20.6h.81v2.3h3V20.6h.8v5.5h-.8V23.5h-3v2.6h-.81Z"/>
<path class="cls-1" d="M58.13,24.42H55.81l-.62,1.68h-.81l2.16-5.5h.89l2.16,5.5h-.85Zm-.2-.56-.3-.84c-.23-.62-.43-1.22-.64-1.86h0c-.2.65-.4,1.24-.63,1.86l-.31.84Z"/>
<path class="cls-1" d="M60.57,20.6h.81v5.5h-.81Z"/>
</g>
</g>
</svg>