<?xml version="1.0" encoding="utf-8"?>
<svg version="1.1" xmlns:xlink="http://www.w3.org/1999/xlink" width="56px" height="56px" xmlns="http://www.w3.org/2000/svg">
  <g transform="matrix(1 0 0 1 -995 -163 )">
    <path d="M 39.125 49.265625  C 42.5625 47.44270833333334  45.38541666666667 44.96875  47.59375 41.84375  C 47.13541666666667 38.61458333333333  46.223958333333336 35.932291666666664  44.859375 33.796875  C 43.49479166666667 31.661458333333336  41.57291666666667 30.42708333333333  39.09375 30.093749999999996  C 37.69791666666667 31.63541666666666  36.036458333333336 32.83854166666666  34.109375 33.703125  C 32.18229166666667 34.56770833333333  30.145833333333336 35  28 35  C 25.854166666666668 35  23.817708333333336 34.56770833333333  21.890625 33.703125  C 19.963541666666668 32.83854166666666  18.302083333333336 31.63541666666666  16.90625 30.093749999999996  C 14.427083333333332 30.42708333333333  12.505208333333334 31.661458333333336  11.140625 33.796875  C 9.776041666666668 35.932291666666664  8.864583333333334 38.61458333333333  8.40625 41.84375  C 10.614583333333334 44.96875  13.4375 47.44270833333334  16.875 49.265625  C 20.3125 51.088541666666664  24.020833333333336 52  28 52  C 31.97916666666667 52  35.6875 51.088541666666664  39.125 49.265625  Z M 36.484375 28.484375  C 38.828125 26.140625  40 23.312500000000004  40 19.999999999999996  C 40 16.6875  38.828125 13.859375  36.484375 11.515625  C 34.140625 9.171874999999996  31.3125 8.000000000000004  28 8.000000000000004  C 24.6875 8.000000000000004  21.859375 9.171874999999996  19.515625 11.515625  C 17.171875 13.859375  16 16.6875  16 19.999999999999996  C 16 23.312500000000004  17.171875 26.140625  19.515625 28.484375  C 21.859375 30.828125000000004  24.6875 32  28 32  C 31.3125 32  34.140625 30.828125000000004  36.484375 28.484375  Z M 53.78125 17.125  C 55.26041666666667 20.58333333333333  56 24.208333333333332  56 28  C 56 31.791666666666664  55.26041666666667 35.41145833333333  53.78125 38.859375  C 52.30208333333334 42.307291666666664  50.31770833333334 45.28645833333333  47.828125 47.796875  C 45.33854166666667 50.307291666666664  42.364583333333336 52.302083333333336  38.90625 53.78125  C 35.44791666666667 55.260416666666664  31.812499999999996 56  28 56  C 24.208333333333336 56  20.583333333333336 55.260416666666664  17.125 53.78125  C 13.666666666666668 52.302083333333336  10.6875 50.3125  8.1875 47.8125  C 5.6875 45.3125  3.697916666666667 42.33333333333333  2.21875 38.875  C 0.7395833333333333 35.416666666666664  0 31.791666666666664  0 28  C 0 24.208333333333332  0.7395833333333333 20.58333333333333  2.21875 17.125  C 3.697916666666667 13.66666666666666  5.6875 10.6875  8.1875 8.187499999999996  C 10.6875 5.6875  13.666666666666668 3.697916666666665  17.125 2.218749999999999  C 20.583333333333336 0.739583333333333  24.208333333333336 0  28 0  C 31.791666666666668 0  35.41666666666667 0.739583333333333  38.875 2.218749999999999  C 42.333333333333336 3.697916666666665  45.3125 5.6875  47.8125 8.187499999999996  C 50.31250000000001 10.6875  52.30208333333334 13.66666666666666  53.78125 17.125  Z " fill-rule="nonzero" fill="#555555" stroke="none" transform="matrix(1 0 0 1 995 163 )" />
  </g>
</svg>