<?xml version="1.0" standalone="no"?><!DOCTYPE svg PUBLIC "-//W3C//DTD SVG 1.1//EN" "http://www.w3.org/Graphics/SVG/1.1/DTD/svg11.dtd"><svg t="1730448431689" class="icon" viewBox="0 0 1024 1024" version="1.1" xmlns="http://www.w3.org/2000/svg" p-id="7839" xmlns:xlink="http://www.w3.org/1999/xlink" width="32" height="32"><path d="M450.283003 692.650593 460.516286 683.975334 473.931959 683.975334 778.173215 683.975334C825.761637 683.975334 858.619277 654.259489 858.619277 611.616243L858.619277 287.556232C858.619277 243.08693 816.079592 201.586043 770.381895 201.586043L264.539489 201.586043C220.627963 201.586043 182.857143 241.261844 182.857143 287.556232L182.857143 611.616243C182.857143 654.268495 215.699752 683.975334 263.301964 683.975334L310.110698 683.975334 346.682127 683.975334 346.682127 720.546763 346.682127 828.422715 323.03317 848.4711 310.110698 842.484963 310.110698 811.481562 450.283003 692.650593ZM770.381895 165.014615C835.677789 165.014615 895.190705 222.293678 895.190705 287.556232L895.190705 611.616243C895.190705 676.873885 843.470351 720.546763 778.173215 720.546763L473.931959 720.546763 310.110698 859.426116 310.110698 720.546763 263.301964 720.546763C197.981245 720.546763 146.285714 676.873885 146.285714 611.616243L146.285714 287.556232C146.285714 222.293678 199.21877 165.014615 264.539489 165.014615L770.381895 165.014615Z" fill="#ffffff" p-id="7840"></path><path d="M286.701987 442.778233C286.701987 454.901403 291.748904 466.943548 300.414062 475.512635 309.077979 484.087859 321.258354 489.074626 333.51072 489.074626 345.763088 489.074626 357.943462 484.087859 366.60738 475.512635 375.271296 466.943548 380.319455 454.901403 380.319455 442.778233 380.319455 430.659973 375.271296 418.614146 366.60738 410.043833 357.943462 401.474747 345.763088 396.486753 333.51072 396.486753 321.258354 396.486753 309.077979 401.474747 300.414062 410.043833 291.748904 418.614146 286.701987 430.659973 286.701987 442.778233L286.701987 442.778233Z" fill="#ffffff" p-id="7841"></path><path d="M473.931959 442.778233C473.931959 454.901403 478.973912 466.943548 487.639069 475.512635 496.302985 484.087859 508.483361 489.074626 520.735728 489.074626 532.993059 489.074626 545.167228 484.087859 553.832386 475.512635 562.496304 466.943548 567.544461 454.901403 567.544461 442.778233 567.544461 430.659973 562.496304 418.614146 553.832386 410.043833 545.167228 401.474747 532.993059 396.486753 520.735728 396.486753 508.483361 396.486753 496.302985 401.474747 487.639069 410.043833 478.973912 418.614146 473.931959 430.659973 473.931959 442.778233L473.931959 442.778233Z" fill="#ffffff" p-id="7842"></path><path d="M661.156965 442.778233C661.156965 454.901403 666.198917 466.943548 674.864075 475.512635 683.532957 484.087859 695.708367 489.074626 707.9657 489.074626 720.218066 489.074626 732.3972 484.087859 741.062358 475.512635 749.726274 466.943548 754.769468 454.901403 754.769468 442.778233 754.769468 430.659973 749.726274 418.614146 741.062358 410.043833 732.3972 401.474747 720.218066 396.486753 707.9657 396.486753 695.708367 396.486753 683.532957 401.474747 674.864075 410.043833 666.198917 418.614146 661.156965 430.659973 661.156965 442.778233L661.156965 442.778233Z" fill="#ffffff" p-id="7843"></path></svg>