<svg t="1730773347569" class="icon" viewBox="0 0 1024 1024" version="1.1" xmlns="http://www.w3.org/2000/svg" p-id="4287" width="32" height="32"><path d="M314.5 490.8h322.7c9.9 0 17.9-8 17.9-17.9 0-9.9-8-17.9-17.9-17.9H314.5c-9.9 0-17.9 8-17.9 17.9-0.1 9.9 8 17.9 17.9 17.9z m0 0M708.9 562.5H314.5c-9.9 0-17.9 8-17.9 17.9 0 9.9 8 17.9 17.9 17.9h394.4c9.9 0 17.9-8 17.9-17.9 0-9.8-8-17.9-17.9-17.9z m0 0M708.9 670.1H314.5c-9.9 0-17.9 8-17.9 17.9 0 9.9 8 17.9 17.9 17.9h394.4c9.9 0 17.9-8 17.9-17.9 0-9.9-8-17.9-17.9-17.9z m0 0" fill="#ffffff" p-id="4288"></path><path d="M816.4 386.5c-9.9 0-17.9 8-17.9 17.9v319.5c0 49.4-40.2 89.6-89.6 89.6H314.5c-49.4 0-89.6-40.2-89.6-89.6V350.6c0-49.4 40.2-89.6 89.6-89.6h215.1c9.9 0 17.9-8 17.9-17.9 0-9.9-8-17.9-17.9-17.9H314.5c-69.2 0-125.5 56.3-125.5 125.5v373.2c0 69.2 56.3 125.5 125.5 125.5h394.4c69.2 0 125.5-56.3 125.5-125.5V404.4c0-9.9-8.1-17.9-18-17.9z m0 0" fill="#ffffff" p-id="4289"></path><path d="M629 269.5c9.8-1.2 16.8-10.1 15.7-20-3.1-25.3 14.6-51.1 32.5-57.3 29.2-10.1 55.8-7.9 81.1 6.7 12.3 7.1 20.2 19.8 21.8 34.8 1.7 15.7-3.9 31-14.8 40.9-2 1.7-10.3 6.7-17 10.8-7.3 4.5-15.8 9.6-23.8 14.8-25.9 17-34.2 26.1-34.2 37.7-0.1 3.4-0.3 10.1-0.4 16.9-0.1 5.4 0 2.3 0 0.7-0.8 9.1 5 17.4 14.2 19.1 1.1 0.2 2.2 0.3 3.3 0.3 8.5 0 16.8-6 18.4-14.7 0.4-2.1 0.4-2.1 0-4.9 0.1-4.5 0.1-9 0.2-11.9 2.4-2.2 7.6-6.3 18.2-13.3 7.6-5 15.7-9.9 22.7-14.2 12.1-7.3 18.5-11.3 22.4-14.8 19.5-17.7 29.3-44.3 26.5-71.4-2.9-26.6-17.3-49.2-39.6-62.1-34.4-19.8-71.6-23.1-110.7-9.6-36 12.4-61.3 55.2-56.4 95.5 1.1 10.2 10 17.3 19.9 16z m0 0M707.2 407.7c-13.8 0.3-24.4 11.5-23.9 25.6 0.4 13.2 11.4 23.3 24.9 23.1 13.6-0.2 23.8-10.6 23.8-24.1 0.1-12.9-10-24.9-24.8-24.6z m0 0" fill="#ffffff" p-id="4290"></path></svg>