<svg t="1731033585458" class="icon" viewBox="0 0 1024 1024" version="1.1" xmlns="http://www.w3.org/2000/svg" p-id="9514" width="32" height="32"><path d="M392.533333 554.666667c40.874667 0 76.8 29.952 76.8 71.125333v199.082667C469.333333 866.048 433.408 896 392.533333 896H204.8c-40.874667 0-76.8-29.952-76.8-71.125333v-199.082667C128 584.618667 163.925333 554.666667 204.8 554.666667h187.733333zM853.333333 512a42.666667 42.666667 0 0 1 42.666667 42.666667v227.541333C896 846.976 837.12 896 768 896h-213.333333c-37.973333 0-57.045333-45.952-30.165334-72.832l85.333334-85.333333a42.666667 42.666667 0 0 1 60.330666 60.330666l-12.501333 12.501334H768c23.168 0 39.936-12.458667 42.368-25.258667l0.298667-3.2V554.666667a42.666667 42.666667 0 0 1 42.666666-42.666667zM384 640H213.333333v170.666667h170.666667v-170.666667z m85.333333-512c37.973333 0 57.045333 45.952 30.165334 72.832l-85.333334 85.333333a42.666667 42.666667 0 0 1-60.330666-60.330666L366.336 213.333333H256c-23.168 0-39.936 12.458667-42.368 25.258667L213.333333 241.792V469.333333a42.666667 42.666667 0 1 1-85.333333 0V241.792C128 177.024 186.88 128 256 128h213.333333z m349.866667 0c40.874667 0 76.8 29.952 76.8 71.125333v199.082667c0 41.173333-35.925333 71.125333-76.8 71.125333h-187.733333c-40.874667 0-76.8-29.952-76.8-71.125333V199.125333C554.666667 157.952 590.592 128 631.466667 128h187.733333zM810.666667 213.333333h-170.666667v170.666667h170.666667V213.333333z" fill="#ffffff" p-id="9515"></path></svg>