<svg xmlns="http://www.w3.org/2000/svg" viewBox="0 0 30 30">
  <defs>
    <style>
      .cls-1
      {fill:#fff;}
    </style>
  </defs>
  <g id="图层_2" data-name="图层 2">
    <g id="图层_1-2" data-name="图层 1">
      <path class="cls-1" d="M2.79,26.11a7.32,7.32,0,0,0,4.55,1.42,7.84,7.84,0,0,0,4.05-1.16S6.27,27.33,2.79,26.11Z" />
      <path class="cls-1" d="M2.17,27.53S5.32,30.74,9,29.84s7.56-2.95,11.12-3S27.83,30,27.83,30s-2.32-5.75-7.32-5.82-7.09,3.35-11.39,4.25A9.48,9.48,0,0,1,2.17,27.53Z" />
      <path class="cls-1" d="M15.11,29a17.59,17.59,0,0,1,5.42-1,6.58,6.58,0,0,1,4.09,1.41,11.16,11.16,0,0,0-4.44-.82A27.67,27.67,0,0,0,15.11,29Z" />
      <path class="cls-1" d="M14.42,18.07l-.77,5.73a14.57,14.57,0,0,1,2.59-.86l-.66-4.87Z" />
      <path class="cls-1" d="M15,0A15.12,15.12,0,0,0,0,15.24a15.32,15.32,0,0,0,3,9.2A20,20,0,0,0,5,25a12.68,12.68,0,0,0,5.35,0l.51-.13L13.48,8.81h3l2.27,13.93A10.64,10.64,0,0,1,24,24a24.38,24.38,0,0,1,2.16,1.45A15.35,15.35,0,0,0,30,15.24,15.12,15.12,0,0,0,15,0Zm1.49,6v1.8h-3V6h-.38l1.77-1.32V4.33h.25v.36L16.87,6Z" />
    </g>
  </g>
</svg>